# File created by Blade
# Date/Time:  Thu Sep 25 17:14:50 2014
# Frame Rate: 120.000 fps
#------------------------------------------------------
:FULLY-SPECIFIED
:DEGREES
425
root 51.141036 33.210009 -3.338243 186.542586 -80.017978 -176.312137
Spine -9.544677 12.265988 2.502771
Head 13.113987 -7.030781 1.511270
LeftShoulder -14.418059 15.595166 37.974357
LeftArm 105.153166 -73.263966 -57.373367
LeftForeArm -28.213282 0.000000 12.867362
LeftHand -16.475167 -0.000000 -6.657538
LeftHandThumb1 -26.253704 0.000000 33.147579
RightShoulder -65.508184 65.954684 -124.013652
RightArm 7.473818 14.300318 51.084285
RightForeArm -0.626586 -0.000000 46.273179
RightHand -8.425063 0.000000 -7.636657
RightHandThumb1 -24.326973 -0.000000 -32.862282
LeftUpLeg -53.255178 13.217172 -9.598417
LeftLeg 2.123999 -0.000000 -0.000000
LeftFoot 42.182808 25.363432 -15.902674
LeftToeBase 31.422162 -0.000000 -0.000000
RightUpLeg 0.690629 -11.179096 3.326076
RightLeg -0.284034 -0.000000 0.000000
RightFoot -13.552925 6.279654 -1.001673
RightToeBase 2.940443 -0.000000 -0.000000
426
root 51.039760 33.200494 -3.328238 186.721643 -79.942097 -176.353486
Spine -9.570289 12.261109 2.486962
Head 13.082589 -6.923945 1.529769
LeftShoulder -14.504328 15.351830 38.168403
LeftArm 105.231652 -72.852987 -57.607325
LeftForeArm -28.149678 -0.000000 12.799526
LeftHand -16.633517 -0.000000 -6.500302
LeftHandThumb1 -26.253704 0.000000 33.147579
RightShoulder -65.969773 65.987104 -124.554819
RightArm 7.318667 14.182738 51.081331
RightForeArm -0.949844 -0.000000 46.175304
RightHand -8.513355 -0.000000 -7.607098
RightHandThumb1 -24.326973 -0.000000 -32.862282
LeftUpLeg -53.495850 13.240761 -9.784268
LeftLeg 2.197205 -0.000000 -0.000000
LeftFoot 42.226439 25.269942 -15.893358
LeftToeBase 31.399266 -0.000000 -0.000000
RightUpLeg 0.741484 -11.212545 3.265137
RightLeg -0.319244 -0.000000 0.000000
RightFoot -13.598465 6.336258 -0.925651
RightToeBase 2.883727 -0.000000 -0.000000
427
root 50.936845 33.189832 -3.317753 186.900041 -79.878703 -176.394727
Spine -9.591310 12.238650 2.476843
Head 13.022404 -6.827391 1.516548
LeftShoulder -14.440774 15.205029 38.254882
LeftArm 103.899464 -72.897042 -56.243867
LeftForeArm -28.585375 -0.000000 12.675857
LeftHand -16.641264 -0.000000 -6.551204
LeftHandThumb1 -26.253704 0.000000 33.147579
RightShoulder -66.664060 66.087696 -125.409732
RightArm 6.992968 14.025492 51.037109
RightForeArm -1.239861 0.000000 46.113098
RightHand -8.517461 -0.000000 -8.028051
RightHandThumb1 -24.326973 -0.000000 -32.862282
LeftUpLeg -53.721862 13.275757 -9.986604
LeftLeg 2.278590 -0.000000 -0.000000
LeftFoot 42.305553 25.255452 -15.957545
LeftToeBase 31.288697 -0.000000 -0.000000
RightUpLeg 0.788712 -11.242357 3.203446
RightLeg -0.337102 -0.000000 0.000000
RightFoot -13.650775 6.388389 -0.809616
RightToeBase 2.739834 -0.000000 -0.000000
428
root 50.832535 33.179479 -3.307636 187.119191 -79.769408 -176.466999
Spine -9.608139 12.245181 2.420684
Head 13.003038 -6.770228 1.600749
LeftShoulder -14.421970 15.202659 38.317002
LeftArm 103.778028 -72.942953 -56.062037
LeftForeArm -28.860408 -0.000000 12.498689
LeftHand -16.542114 -0.000000 -6.894897
LeftHandThumb1 -26.253704 0.000000 33.147579
RightShoulder -67.012515 66.107617 -125.784477
RightArm 6.896766 13.965435 51.029854
RightForeArm -1.682928 -0.000000 46.042786
RightHand -8.601067 -0.000000 -7.961118
RightHandThumb1 -24.326973 -0.000000 -32.862282
LeftUpLeg -53.923171 13.294765 -10.120426
LeftLeg 2.367932 -0.000000 -0.000000
LeftFoot 42.293697 25.226772 -16.012361
LeftToeBase 31.260012 -0.000000 -0.000000
RightUpLeg 0.816817 -11.219393 3.138041
RightLeg -0.338625 -0.000000 0.000000
RightFoot -13.731001 6.375941 -0.760220
RightToeBase 2.645032 -0.000000 -0.000000
429
root 50.723277 33.167831 -3.294541 187.414452 -79.686085 -176.602357
Spine -9.645298 12.220590 2.375556
Head 12.974316 -6.659077 1.643400
LeftShoulder -14.370287 15.080407 38.404706
LeftArm 103.674023 -72.880067 -55.973363
LeftForeArm -29.138478 -0.000000 12.363603
LeftHand -16.626096 -0.000000 -6.927676
LeftHandThumb1 -26.253704 0.000000 33.147579
RightShoulder -67.675905 66.171401 -126.560138
RightArm 6.662154 13.827350 51.024402
RightForeArm -2.224987 -0.000000 45.952081
RightHand -8.656200 0.000000 -7.940050
RightHandThumb1 -24.326973 -0.000000 -32.862282
LeftUpLeg -54.115478 13.286873 -10.286662
LeftLeg 2.447727 -0.000000 -0.000000
LeftFoot 42.223174 25.267060 -16.036469
LeftToeBase 31.468134 -0.000000 -0.000000
RightUpLeg 0.833366 -11.232917 3.063882
RightLeg -0.339111 -0.000000 0.000000
RightFoot -13.803385 6.344271 -0.686287
RightToeBase 2.816703 -0.000000 -0.000000
430
root 50.612029 33.155115 -3.282958 187.662957 -79.568109 -176.655475
Spine -9.739271 12.235143 2.314522
Head 12.968983 -6.574915 1.673906
LeftShoulder -14.317735 15.078940 38.489388
LeftArm 103.852908 -72.870804 -56.160804
LeftForeArm -29.516484 0.000000 12.234886
LeftHand -16.543392 -0.000000 -7.178170
LeftHandThumb1 -26.253704 0.000000 33.147579
RightShoulder -67.939581 66.194435 -126.861556
RightArm 6.593692 13.727295 51.013423
RightForeArm -2.918408 -0.000000 45.856155
RightHand -8.774690 -0.000000 -8.363951
RightHandThumb1 -24.326973 -0.000000 -32.862282
LeftUpLeg -54.330144 13.353190 -10.484596
LeftLeg 2.501592 -0.000000 -0.000000
LeftFoot 42.173427 25.338805 -16.166143
LeftToeBase 31.843227 -0.000000 -0.000000
RightUpLeg 0.817079 -11.191032 3.007570
RightLeg -0.311664 -0.000000 0.000000
RightFoot -13.908544 6.403962 -0.636407
RightToeBase 2.512989 -0.000000 -0.000000
